<?xml version="1.0" standalone="no"?><!DOCTYPE svg PUBLIC "-//W3C//DTD SVG 1.1//EN" "http://www.w3.org/Graphics/SVG/1.1/DTD/svg11.dtd"><svg t="1500452375094" class="icon" style="" viewBox="0 0 1024 1024" version="1.1" xmlns="http://www.w3.org/2000/svg" p-id="2941" xmlns:xlink="http://www.w3.org/1999/xlink" width="200" height="200"><defs><style type="text/css"></style></defs><path d="M902.947 571.027h-332.293v332.346c0 32.387-26.267 58.628-58.655 58.628-32.387 0-58.654-26.241-58.654-58.628v-332.346h-332.295c-32.414 0-58.654-26.241-58.654-58.628 0-32.375 26.243-58.628 58.654-58.628h332.293v-332.346c0-32.375 26.267-58.628 58.654-58.628 32.388 0 58.655 26.254 58.655 58.628v332.347h332.293c32.414 0 58.655 26.252 58.655 58.626-0.001 32.387-26.241 58.626-58.655 58.626z" p-id="2942"></path></svg>