<?xml version="1.0" standalone="no"?><!DOCTYPE svg PUBLIC "-//W3C//DTD SVG 1.1//EN" "http://www.w3.org/Graphics/SVG/1.1/DTD/svg11.dtd"><svg t="1511509287661" class="icon" style="" viewBox="0 0 1024 1024" version="1.1" xmlns="http://www.w3.org/2000/svg" p-id="1888" xmlns:xlink="http://www.w3.org/1999/xlink" width="48" height="48"><defs><style type="text/css"></style></defs><path d="M762.88 586.24l-1.024-1.024c-1.536-1.536-2.56-4.096-2.56-6.144v-41.984h-33.792v41.984c0 10.752 4.096 21.504 11.776 29.184l64 84.992 1.024 1.024c1.536 1.536 2.56 4.096 2.56 6.144v41.984c0 5.12-4.096 8.704-8.704 8.704h-567.808c-5.12 0-8.704-4.096-8.704-8.704v-41.984c0-2.56 1.024-4.608 2.56-6.144l1.024-1.024 64-84.992c7.68-8.192 11.776-18.432 11.776-29.184v-161.28c0-62.976 20.992-120.832 59.904-163.328 18.944-20.992 41.472-37.376 67.072-48.64 26.624-11.776 55.808-17.92 86.528-17.92s59.904 6.144 86.528 17.92c25.6 11.264 48.128 27.648 67.072 48.64 38.4 42.496 59.904 100.352 59.904 163.328v39.936h33.792v-39.936c0-71.168-24.064-137.216-68.608-185.856a233.3696 233.3696 0 0 0-98.304-65.024c-2.048-19.456-11.264-37.888-26.112-51.2-14.848-13.824-34.304-20.992-54.784-20.992s-39.936 7.68-54.784 20.992c-14.848 13.312-24.064 31.744-26.112 51.2-37.376 12.8-71.168 34.816-98.304 65.024-44.032 48.64-68.608 114.688-68.608 185.856V579.072c0 2.56-1.024 4.608-2.56 6.144l-1.024 1.024-64 84.992c-7.68 8.192-11.776 18.432-11.776 29.184v41.984c0 23.552 19.456 43.008 43.008 43.008h567.808c23.552 0 43.008-19.456 43.008-43.008v-41.984c0-10.752-4.096-21.504-11.776-29.184L762.88 586.24z m-250.88-458.24c19.456 0 36.352 11.776 43.52 29.184-14.336-2.56-28.672-3.584-43.52-3.584s-29.184 1.536-43.52 3.584c7.168-17.408 24.064-29.184 43.52-29.184zM600.064 798.72h-176.128c-7.168 0-13.824 3.072-18.944 8.192s-7.168 12.288-6.656 19.456c2.56 28.16 15.872 54.272 36.352 73.216 20.992 19.456 48.64 29.696 76.8 29.696s55.808-10.752 76.8-29.696c20.992-18.944 33.792-45.056 36.352-73.216 0.512-7.168-2.048-14.336-6.656-19.456s-10.752-8.192-17.92-8.192z m-34.304 76.288c-14.848 13.312-33.792 20.992-53.76 20.992s-39.424-7.168-53.76-20.992c-12.288-11.264-20.48-26.112-24.064-41.984h156.16c-3.584 15.872-12.288 30.72-24.576 41.984zM936.96 336.384c-6.656-9.728-20.48-12.288-30.208-5.12-9.728 6.656-12.288 20.48-5.12 30.208 42.496 60.416 48.64 138.752 16.384 205.312l-1.024 2.56c-5.12 9.728-1.536 21.504 7.168 27.648l2.56 1.536c10.752 5.12 23.552 1.024 29.184-9.728l1.536-2.56c38.912-80.896 31.232-176.64-20.48-249.856zM826.368 408.064c-10.752 5.632-14.336 18.944-8.704 29.696 14.336 25.6 16.384 56.32 5.632 83.456-3.584 9.728 0 19.968 8.192 25.6 1.536 1.024 3.072 1.536 4.608 2.048 11.264 4.096 23.552-1.536 28.16-12.288 14.848-39.424 11.776-82.944-8.192-119.808-5.632-10.24-18.944-14.336-29.696-8.704zM127.488 323.072c-9.728-6.656-23.552-4.608-30.208 5.12-51.712 73.216-59.392 168.96-19.968 248.832l1.536 2.56c5.12 10.752 18.432 14.848 29.184 9.728l2.56-1.536c8.704-6.144 12.288-17.92 7.168-27.648l-1.024-2.56c-32.256-66.048-26.112-144.896 16.384-205.312 6.656-8.704 4.096-22.016-5.632-29.184zM198.144 541.184c1.536-0.512 3.072-1.536 4.608-2.048 8.192-5.632 11.776-15.872 8.192-25.6-10.24-27.136-8.192-57.856 5.632-83.456 5.632-10.752 2.048-23.552-8.704-29.696-10.752-5.632-23.552-2.048-29.696 8.704-20.48 36.864-23.552 80.896-8.192 119.808 4.608 11.264 16.896 16.896 28.16 12.288z" fill="" p-id="1889"></path></svg>