<?xml version="1.0" standalone="no"?><!DOCTYPE svg PUBLIC "-//W3C//DTD SVG 1.1//EN" "http://www.w3.org/Graphics/SVG/1.1/DTD/svg11.dtd"><svg t="1510910634122" class="icon" style="" viewBox="0 0 1024 1024" version="1.1" xmlns="http://www.w3.org/2000/svg" p-id="6575" xmlns:xlink="http://www.w3.org/1999/xlink" width="48" height="48"><defs><style type="text/css"></style></defs><path d="M535.488 91.584a44.288 44.288 0 0 0-28.352 10.304l-243.2 210.304-171.136 0.192A66.816 66.816 0 0 0 25.728 378.624l-0.384 288.064a66.816 66.816 0 0 0 67.2 66.496h173.504l240 188.928c8.64 7.04 18.624 10.304 28.352 10.304a44.608 44.608 0 0 0 45.056-44.352L580.48 135.872a44.48 44.48 0 0 0-44.992-44.288m-22.4 751.68l-205.952-162.176a66.24 66.24 0 0 0-41.088-14.272H91.712l1.216-288.064 171.072-0.256c15.936 0 31.296-5.76 43.264-16.128l206.784-178.752-0.96 659.648m0 0M709.824 293.696a33.28 33.28 0 0 0-36.736 55.296 183.168 183.168 0 0 1 82.688 152.64c0 58.816-29.056 114.688-77.76 149.312a33.28 33.28 0 0 0 38.528 54.144 250.624 250.624 0 0 0 105.6-203.392c0-83.52-42.048-161.28-112.32-208m0 0" fill="" p-id="6576"></path><path d="M850.624 172.736a33.152 33.152 0 1 0-44.096 49.6 375.424 375.424 0 0 1 125.76 279.36 371.008 371.008 0 0 1-117.76 272 33.152 33.152 0 0 0 45.632 48.192 437.376 437.376 0 0 0 138.432-320.256 441.344 441.344 0 0 0-147.968-328.896m0 0" fill="" p-id="6577"></path></svg>