<?xml version="1.0" standalone="no"?><!DOCTYPE svg PUBLIC "-//W3C//DTD SVG 1.1//EN" "http://www.w3.org/Graphics/SVG/1.1/DTD/svg11.dtd"><svg t="1501922850528" class="icon" style="" viewBox="0 0 1024 1024" version="1.1" xmlns="http://www.w3.org/2000/svg" p-id="2419" xmlns:xlink="http://www.w3.org/1999/xlink" width="16" height="16"><defs><style type="text/css"></style></defs><path d="M512 0C230.4 0 0 230.4 0 512s230.4 512 512 512 512-230.4 512-512S793.6 0 512 0z m288 480c0 19.2-12.8 32-32 32s-32-12.8-32-32V332.8L614.4 454.4h-3.2c38.4 38.4 60.8 92.8 60.8 150.4 0 124.8-99.2 224-224 224s-224-99.2-224-224 99.2-224 224-224c41.6 0 83.2 12.8 115.2 32 0-3.2 3.2-6.4 6.4-6.4L691.2 288H544c-19.2 0-32-12.8-32-32s12.8-32 32-32h224c19.2 0 32 12.8 32 32v224z" fill="#bfbfbf" p-id="2420"></path><path d="M448 448c-89.6 0-160 70.4-160 160s70.4 160 160 160 160-70.4 160-160-70.4-160-160-160z" fill="#bfbfbf" p-id="2421"></path></svg>