<?xml version="1.0" standalone="no"?><!DOCTYPE svg PUBLIC "-//W3C//DTD SVG 1.1//EN" "http://www.w3.org/Graphics/SVG/1.1/DTD/svg11.dtd"><svg t="1510910642602" class="icon" style="" viewBox="0 0 1024 1024" version="1.1" xmlns="http://www.w3.org/2000/svg" p-id="7254" xmlns:xlink="http://www.w3.org/1999/xlink" width="48" height="48"><defs><style type="text/css"></style></defs><path d="M604.136727 626.455273c-3.351273 0-26.856727-23.924364-10.077091-68.328728 36.933818-37.585455 67.141818-99.072 67.141819-160.581818 0-92.253091-63.790545-140.078545-130.932364-140.078545-70.493091 0-130.932364 47.825455-130.932364 140.078545 0 61.486545 26.856727 122.996364 63.790546 160.581818 13.428364 37.585455-10.077091 64.907636-16.779637 68.328728-73.844364 27.322182-157.789091 75.170909-157.789091 126.417454v17.082182c0 64.907636 124.206545 81.989818 241.710546 81.989818 114.129455 0 238.336-13.661091 238.336-81.989818v-17.082182c-3.328-51.246545-90.624-102.493091-164.468364-126.417454z m0 0" p-id="7255"></path><path d="M825.693091 503.458909c-3.351273 0-23.505455-6.842182-10.077091-47.825454 33.582545-34.164364 57.064727-92.253091 57.064727-150.318546 0-85.410909-53.713455-133.236364-120.855272-133.236364-46.987636 0-90.647273 23.924364-107.42691 71.749819 40.285091 34.164364 67.141818 85.410909 67.141819 153.739636 0 71.749818-33.582545 140.078545-70.493091 184.482909 57.064727 20.503273 144.360727 64.907636 167.842909 133.236364 87.272727-3.421091 167.842909-23.924364 167.842909-75.170909v-17.082182c3.397818-51.246545-77.172364-95.650909-151.04-119.575273z m-604.253091 0c3.351273 0 23.505455-6.842182 10.077091-47.825454-33.559273-34.164364-57.064727-92.253091-57.064727-150.318546 3.351273-85.410909 57.064727-133.236364 120.855272-133.236364 47.010909 0 90.647273 23.924364 107.426909 71.749819-40.285091 34.164364-67.141818 85.410909-67.141818 153.739636 0 71.749818 33.559273 140.078545 70.493091 184.482909-57.064727 20.503273-144.360727 64.907636-167.842909 133.236364-87.272727-3.421091-167.842909-23.924364-167.842909-75.170909v-17.082182c-0.023273-51.246545 80.546909-95.650909 151.04-119.575273z m0 0" p-id="7256"></path></svg>