<?xml version="1.0" standalone="no"?><!DOCTYPE svg PUBLIC "-//W3C//DTD SVG 1.1//EN" "http://www.w3.org/Graphics/SVG/1.1/DTD/svg11.dtd"><svg t="1501923045635" class="icon" style="" viewBox="0 0 1024 1024" version="1.1" xmlns="http://www.w3.org/2000/svg" p-id="3633" xmlns:xlink="http://www.w3.org/1999/xlink" width="16" height="16"><defs><style type="text/css"></style></defs><path d="M550.4 780.8c-6.4-6.4-19.2-6.4-25.6-6.4-12.8 0-19.2 0-25.6 6.4l-179.2 96c-32 19.2-51.2 0-44.8-32l32-198.4c0-19.2-6.4-38.4-19.2-51.2l-147.2-140.8c-25.6-25.6-19.2-51.2 19.2-51.2l198.4-32c19.2 0 38.4-19.2 44.8-32l89.6-179.2c6.4-12.8 19.2-25.6 25.6-25.6s19.2 6.4 25.6 25.6l89.6 179.2c6.4 12.8 25.6 32 44.8 32l198.4 32c38.4 6.4 44.8 32 19.2 51.2l-147.2 140.8c-12.8 12.8-19.2 38.4-19.2 51.2l32 198.4c6.4 32-12.8 51.2-44.8 32l-166.4-96z" fill="#FFCC01" p-id="3634"></path><path d="M524.8 774.4c-12.8 0-19.2 0-25.6 6.4l-179.2 96c-32 19.2-51.2 0-44.8-32l32-198.4c0-19.2-6.4-38.4-19.2-51.2l-147.2-140.8c-25.6-25.6-19.2-51.2 19.2-51.2l198.4-32c19.2 0 38.4-19.2 44.8-32l89.6-179.2c6.4-12.8 19.2-25.6 25.6-25.6" fill="#FFCC01" p-id="3635"></path></svg>