<?xml version="1.0" standalone="no"?><!DOCTYPE svg PUBLIC "-//W3C//DTD SVG 1.1//EN" "http://www.w3.org/Graphics/SVG/1.1/DTD/svg11.dtd"><svg t="1510910617832" class="icon" style="" viewBox="0 0 1024 1024" version="1.1" xmlns="http://www.w3.org/2000/svg" p-id="5899" xmlns:xlink="http://www.w3.org/1999/xlink" width="48" height="48"><defs><style type="text/css"></style></defs><path d="M364.7 764.2h-42c-23.9 0-43.3-18.7-43.3-41.6V507.4c0-23 19.4-41.7 43.3-41.7h42c23.9 0 43.3 18.7 43.3 41.7v215.2c-0.1 23-19.5 41.6-43.3 41.6z m216.4 0h-42c-23.9 0-43.3-18.7-43.3-41.6V242.3c0-23 19.4-41.7 43.3-41.7h42c23.9 0 43.3 18.7 43.3 41.7v480.3c-0.2 23-19.4 41.6-43.3 41.6z m220.7 0h-42c-23.9 0-43.3-18.7-43.3-41.6V387c0-23 19.4-41.7 43.3-41.7h42c23.9 0 43.3 18.7 43.3 41.7v335.6c-0.1 23-19.4 41.6-43.3 41.6z m75.9 125.1H164.2c-23.9 0-43.3-18.7-43.3-41.7V180.9c0-23 19.4-41.6 43.3-41.6s43.3 18.7 43.3 41.6v625h670.2c23.9 0 43.3 18.7 43.3 41.7-0.2 23-19.5 41.7-43.3 41.7z" p-id="5900"></path></svg>